<svg width="481" height="349" viewBox="0 0 481 349" fill="none" xmlns="http://www.w3.org/2000/svg">
<g clip-path="url(#clip0)">
<path d="M447.039 314.075H388.338V347.973H447.039V314.075Z" fill="#6E2B77"/>
<path d="M326.498 340.13C325.971 341.924 325.727 344.016 326.821 345.532C327.426 346.291 328.222 346.875 329.127 347.223C331.457 348.136 333.963 348.504 336.456 348.299C336.934 348.322 337.411 348.244 337.857 348.073C338.303 347.901 338.709 347.639 339.049 347.303C344.833 342.51 348.745 335.83 350.098 328.437C350.207 328.055 350.186 327.648 350.039 327.28C349.849 326.994 349.582 326.768 349.269 326.626C347.983 325.819 346.595 325.185 345.143 324.74C337.197 322.687 328.467 333.425 326.498 340.13Z" fill="#2F2E41"/>
<path d="M409.832 314.991C410.9 316.232 412.216 317.235 413.695 317.935C414.437 318.279 415.247 318.45 416.065 318.436C416.882 318.422 417.686 318.223 418.416 317.855C420.602 316.609 421.221 313.714 421.047 311.202C420.724 306.557 418.507 302.37 415.959 298.575C415.153 297.374 413.368 293.801 411.802 293.756C411.058 293.735 408.276 296.435 407.52 296.949C404.758 298.827 402.845 300.17 403.419 303.774C404.061 307.794 407.13 312.096 409.832 314.991Z" fill="#2F2E41"/>
<path d="M385.615 122.838C373.856 121.925 362.625 122.263 350.845 121.658C349.855 121.607 350.332 132.95 349.306 139.109C348.779 142.274 331.048 327.717 333.249 328.093C338.9 329.277 344.617 330.124 350.368 330.631C352.701 330.837 374.449 210.006 373.407 200.187C376.254 204.367 386.283 223.667 391.354 245.867C398.044 275.158 400.014 308.29 404.173 306.431C406.85 302.752 410.483 299.876 414.678 298.115C421.551 295.556 410.412 154.655 398.642 148.178C398.497 144.054 398.346 139.829 396.793 136.006C394.603 130.614 390.282 126.309 385.615 122.838Z" fill="#2F2E41"/>
<path d="M480.777 349H156.747V347.767H481L480.777 349Z" fill="#3F3D56"/>
<path d="M265.856 166.31H0V218.849H265.856V166.31Z" fill="#E6E6E6"/>
<path d="M265.856 83.2915H0V135.831H265.856V83.2915Z" fill="#E6E6E6"/>
<path d="M265.856 0H0V52.5395H265.856V0Z" fill="#E6E6E6"/>
<path d="M5.66754 46.8664H260.188V5.6731H5.66754V46.8664Z" fill="white"/>
<path d="M5.66754 130.341H260.188V89.1478H5.66754V130.341Z" fill="white"/>
<path d="M5.66748 213.176H260.188V171.983H5.66748V213.176Z" fill="white"/>
<path d="M27.9489 41.6222C36.608 41.6222 43.6276 34.5959 43.6276 25.9286C43.6276 17.2613 36.608 10.235 27.9489 10.235C19.2898 10.235 12.2703 17.2613 12.2703 25.9286C12.2703 34.5959 19.2898 41.6222 27.9489 41.6222Z" fill="#6E2B77"/>
<path d="M220.183 19.7876H65.4413V23.1993H220.183V19.7876Z" fill="#6E2B77"/>
<path d="M220.183 28.658H65.4413V32.0696H220.183V28.658Z" fill="#6E2B77"/>
<path d="M27.9489 125.596C36.608 125.596 43.6276 118.57 43.6276 109.902C43.6276 101.235 36.608 94.2089 27.9489 94.2089C19.2898 94.2089 12.2703 101.235 12.2703 109.902C12.2703 118.57 19.2898 125.596 27.9489 125.596Z" fill="#CCCCCC"/>
<path d="M220.183 103.761H65.4413V107.173H220.183V103.761Z" fill="#CCCCCC"/>
<path d="M220.183 112.632H65.4413V116.044H220.183V112.632Z" fill="#CCCCCC"/>
<path d="M27.9489 208.614C36.608 208.614 43.6276 201.588 43.6276 192.921C43.6276 184.253 36.608 177.227 27.9489 177.227C19.2898 177.227 12.2703 184.253 12.2703 192.921C12.2703 201.588 19.2898 208.614 27.9489 208.614Z" fill="#CCCCCC"/>
<path d="M220.183 186.78H65.4413V190.191H220.183V186.78Z" fill="#CCCCCC"/>
<path d="M220.183 195.65H65.4413V199.062H220.183V195.65Z" fill="#CCCCCC"/>
<path d="M382.718 32.8903C376.615 22.5683 364.541 22.0873 364.541 22.0873C364.541 22.0873 352.775 20.5813 345.228 36.3017C338.193 50.9544 328.483 65.1019 343.664 68.532L346.407 59.9892L348.105 69.168C350.266 69.3236 352.435 69.3607 354.6 69.2791C370.858 68.7537 386.341 69.4328 385.842 63.5934C385.179 55.8306 388.59 42.822 382.718 32.8903Z" fill="#2F2E41"/>
<path d="M360.203 68.0582C360.233 69.2201 360.224 70.4454 359.647 71.454C358.504 73.4536 355.713 73.7529 354.034 75.3289C352.268 76.9863 352.068 79.6761 351.984 82.0975C351.896 84.6292 351.821 87.2438 352.744 89.6024C353.31 90.9017 354.024 92.1307 354.874 93.2644C355.899 94.7435 356.934 96.2159 357.978 97.6817C358.535 98.5072 359.157 99.2878 359.836 100.016C361.706 101.923 364.271 102.978 366.831 103.731C368.486 104.217 370.273 104.596 371.914 104.068C373 103.643 374.001 103.027 374.87 102.249C376.139 101.338 377.266 100.244 378.215 99.0027C379.594 97.0011 379.976 94.4954 380.261 92.0812C381.106 84.9422 381.435 77.7515 381.245 70.5651C381.279 69.782 381.139 69.001 380.834 68.279C379.984 66.6173 377.707 66.2625 376.507 64.8331C375.481 63.611 375.44 61.8669 375.448 60.2707L375.471 56.2073C375.506 55.8649 375.438 55.5197 375.273 55.2173C375.125 55.0544 374.945 54.9225 374.745 54.8292C374.545 54.7359 374.329 54.6829 374.109 54.6735C371.586 54.2543 369.028 54.083 366.471 54.162C364.399 54.2254 360.422 54.0518 358.63 55.2072C357.003 56.256 359.04 59.1527 359.417 60.7799C359.923 63.1733 360.187 65.6118 360.203 68.0582Z" fill="#FFB8B8"/>
<path d="M364.961 61.0802C374.023 61.0802 381.369 53.7268 381.369 44.6559C381.369 35.585 374.023 28.2316 364.961 28.2316C355.898 28.2316 348.552 35.585 348.552 44.6559C348.552 53.7268 355.898 61.0802 364.961 61.0802Z" fill="#FFB8B8"/>
<path d="M361.245 80.1761C352.776 53.3129 348.314 91.0447 342.975 101.347C343.024 108.45 343.217 128.097 344.876 135.543C351.324 164.471 383.252 162.2 392.853 137.803C397.968 124.807 386.622 92.599 387.006 77.5707C372.946 63.3102 372.078 108.552 361.245 80.1761Z" fill="#6E2B77"/>
<path d="M351.948 70.9619C333.598 79.8893 342.352 103.875 335.701 119.572C330.388 141.108 316.878 147.88 347.768 148.381C354.424 128.696 347.923 107.314 356.998 87.2697C357.623 79.4192 360.313 76.467 360.075 69.8188C358.295 67.0597 353.686 70.1071 351.948 70.9619Z" fill="#575A88"/>
<path d="M380.019 31.8956L368.091 25.6407L351.618 28.1995L348.21 43.2673L356.694 42.9402L359.064 37.4046V42.8487L362.978 42.6984L365.251 33.8854L366.671 43.2673L380.588 42.9826L380.019 31.8956Z" fill="#2F2E41"/>
<path d="M372.641 78.5225C382.086 77.4192 372.878 66.0656 380.375 66.2585C402.823 62.4792 409.539 76.3961 401.001 95.8203C393.176 111.378 420.858 133.234 405.393 141.939C399.905 143.956 392.046 150.299 386.682 147.537C378.07 125.872 377.759 101.117 372.641 78.5225Z" fill="#575A88"/>
<path d="M398.93 140.373C395.641 141.947 393.04 144.451 390.838 147.359C390.372 147.975 390.997 149.123 392.394 149.104C393.693 149.087 394.47 147.419 395.769 147.401C396.166 150.878 396.885 154.31 397.917 157.653C400.509 155.374 402.062 152.167 403.547 149.05L406.483 142.888C407.56 140.626 408.639 138.363 409.61 136.054C409.874 135.514 410.037 134.93 410.092 134.331C410.22 130.356 406.304 130.332 404.616 132.82C402.769 135.54 402.194 138.81 398.93 140.373Z" fill="#FFB8B8"/>
<path d="M399.605 72.0381C402.115 74.6488 404.643 77.2817 406.591 80.3353C408.54 83.3889 418.619 110.852 419.028 111.434C420.483 113.584 418.783 119.141 418.697 119.459C418.529 120.457 416.426 130.421 415.9 132.621C415.531 134.161 415.536 135.764 415.294 137.329C415.053 138.894 414.51 140.503 413.306 141.53C413.153 141.677 412.964 141.783 412.758 141.837C412.09 141.967 411.635 141.194 411.402 140.554C410.674 138.562 409.939 136.532 408.655 134.844C407.372 133.157 405.426 131.835 403.307 131.842C403.132 131.422 403.059 130.967 403.096 130.513C403.132 130.06 403.275 129.622 403.515 129.235C403.939 128.434 404.562 127.755 405.03 126.978C405.623 125.92 406.027 124.765 406.222 123.568C407.269 118.065 406.215 112.37 403.27 107.607C402.586 106.478 401.758 105.442 400.807 104.526C399.773 103.555 398.562 102.775 397.607 101.726C396.134 99.981 395.244 97.8185 395.061 95.5414C394.884 93.2796 394.945 91.0055 395.24 88.7562C395.67 84.2923 396.222 79.822 396.859 75.3831C396.908 74.8048 397.058 74.2396 397.301 73.7129C397.801 72.7792 398.647 72.4886 399.605 72.0381Z" fill="#575A88"/>
<path d="M344.821 133.712C343.132 131.224 339.217 131.248 339.345 135.223C339.399 135.822 339.563 136.406 339.827 136.946C340.798 139.255 341.876 141.518 342.954 143.78L345.89 149.942C347.375 153.059 348.927 156.266 351.52 158.545C352.551 155.202 353.271 151.77 353.668 148.293C354.967 148.311 355.744 149.979 357.043 149.996C358.439 150.015 359.064 148.867 358.598 148.251C356.397 145.343 353.796 142.839 350.507 141.265C347.243 139.702 346.668 136.432 344.821 133.712Z" fill="#FFB8B8"/>
<path d="M352.136 74.6047C352.379 75.1315 352.529 75.6967 352.578 76.2749C353.215 80.7139 353.767 85.1842 354.197 89.648C354.492 91.8974 354.552 94.1714 354.376 96.4333C354.193 98.7103 353.303 100.873 351.83 102.618C350.875 103.667 349.664 104.447 348.63 105.418C347.679 106.334 346.851 107.37 346.166 108.499C343.222 113.262 342.168 118.957 343.215 124.459C343.41 125.657 343.814 126.811 344.407 127.87C344.875 128.646 345.498 129.326 345.922 130.127C346.162 130.514 346.305 130.952 346.341 131.405C346.377 131.859 346.305 132.314 346.13 132.733C344.011 132.727 342.065 134.049 340.782 135.736C339.498 137.424 338.763 139.454 338.035 141.446C337.801 142.086 337.346 142.859 336.679 142.729C336.473 142.675 336.284 142.569 336.131 142.422C334.927 141.395 334.384 139.786 334.143 138.221C333.901 136.656 333.906 135.053 333.537 133.513C333.01 131.313 330.908 121.349 330.739 120.351C330.654 120.033 328.954 114.476 330.409 112.326C330.818 111.744 340.897 84.2807 342.846 81.2271C344.794 78.1735 347.322 75.5406 349.832 72.9299C350.79 73.3804 351.636 73.6711 352.136 74.6047Z" fill="#575A88"/>
</g>
<defs>
<clipPath id="clip0">
<rect width="481" height="349" fill="white"/>
</clipPath>
</defs>
</svg>
