<svg width="141" height="40" viewBox="0 0 141 40" fill="none" xmlns="http://www.w3.org/2000/svg">
<g clip-path="url(#clip0)">
<path d="M132.32 16.3937C132.083 16.3937 131.891 16.6018 131.891 16.8582C131.891 17.1146 132.083 17.3227 132.32 17.3227C132.557 17.3227 132.75 17.1146 132.75 16.8582C132.75 16.6018 132.557 16.3937 132.32 16.3937Z" fill="#6E2B77"/>
<path d="M140.496 28.1796L134.761 21.9791C135.695 20.4576 136.188 18.6956 136.188 16.8582C136.188 11.7354 132.332 7.56763 127.594 7.56763C122.855 7.56763 119 11.7354 119 16.8582C119 21.981 122.855 26.1487 127.594 26.1487C129.293 26.1487 130.923 25.6166 132.331 24.6066L133.916 26.3204C133.916 26.3207 133.916 26.3209 133.917 26.3212L138.066 30.807C138.391 31.1581 138.822 31.3514 139.281 31.3514C139.74 31.3514 140.172 31.1581 140.496 30.8072C140.821 30.4563 141 29.9897 141 29.4933C141 28.9969 140.821 28.5303 140.496 28.1796ZM132.129 23.6276C132.129 23.6276 132.128 23.6276 132.128 23.6277C130.802 24.6691 129.234 25.2197 127.594 25.2197C123.329 25.2197 119.859 21.4687 119.859 16.8582C119.859 12.2476 123.329 8.49668 127.594 8.49668C131.858 8.49668 135.328 12.2476 135.328 16.8582C135.328 18.6315 134.819 20.3267 133.855 21.7606C133.374 22.4784 132.792 23.1066 132.129 23.6276ZM133.03 24.0487C133.475 23.6554 133.881 23.2159 134.245 22.7352L135.464 24.0531C135.093 24.5261 134.687 24.9659 134.249 25.3666L133.03 24.0487ZM139.889 30.1501C139.726 30.3257 139.511 30.4224 139.281 30.4224C139.052 30.4224 138.836 30.3257 138.674 30.1501L134.858 26.0253C135.293 25.6216 135.7 25.1822 136.073 24.7118L139.889 28.8367C140.051 29.012 140.141 29.2452 140.141 29.4933C140.141 29.7415 140.051 29.9746 139.889 30.1501Z" fill="#6E2B77"/>
<path d="M127.594 9.42578C123.803 9.42578 120.719 12.7599 120.719 16.8582C120.719 20.9565 123.803 24.2906 127.594 24.2906C131.385 24.2906 134.469 20.9565 134.469 16.8582C134.469 12.7599 131.385 9.42578 127.594 9.42578ZM127.594 23.3616C124.277 23.3616 121.578 20.4442 121.578 16.8582C121.578 13.2723 124.277 10.3548 127.594 10.3548C130.911 10.3548 133.609 13.2723 133.609 16.8582C133.609 20.4442 130.911 23.3616 127.594 23.3616Z" fill="#6E2B77"/>
<path d="M132.409 14.8641C132.039 13.823 131.395 12.9328 130.546 12.29C129.677 11.6317 128.656 11.2838 127.594 11.2838C127.356 11.2838 127.164 11.4918 127.164 11.7483C127.164 12.0049 127.356 12.2129 127.594 12.2129C129.36 12.2129 130.972 13.4122 131.607 15.1973C131.673 15.382 131.835 15.4954 132.008 15.4954C132.059 15.4954 132.111 15.4854 132.162 15.4643C132.384 15.3723 132.494 15.1036 132.409 14.8641Z" fill="#6E2B77"/>
</g>
<path d="M6.02344 26.2344C4.48438 26.2344 3.27344 25.6367 2.39062 24.4414C1.51562 23.2461 1.07812 21.5898 1.07812 19.4727C1.07812 17.3242 1.52344 15.6523 2.41406 14.457C3.3125 13.2539 4.54688 12.6523 6.11719 12.6523C7.76562 12.6523 9.02344 13.293 9.89062 14.5742H10.0078C9.82812 13.5977 9.73828 12.7266 9.73828 11.9609V7.76562H13.3242V26H10.582L9.89062 24.3008H9.73828C8.92578 25.5898 7.6875 26.2344 6.02344 26.2344ZM7.27734 23.3867C8.19141 23.3867 8.85938 23.1211 9.28125 22.5898C9.71094 22.0586 9.94531 21.1562 9.98438 19.8828V19.4961C9.98438 18.0898 9.76562 17.082 9.32812 16.4727C8.89844 15.8633 8.19531 15.5586 7.21875 15.5586C6.42188 15.5586 5.80078 15.8984 5.35547 16.5781C4.91797 17.25 4.69922 18.2305 4.69922 19.5195C4.69922 20.8086 4.92188 21.7773 5.36719 22.4258C5.8125 23.0664 6.44922 23.3867 7.27734 23.3867ZM22.4883 15.1953C21.7305 15.1953 21.1367 15.4375 20.707 15.9219C20.2773 16.3984 20.0312 17.0781 19.9688 17.9609H24.9844C24.9688 17.0781 24.7383 16.3984 24.293 15.9219C23.8477 15.4375 23.2461 15.1953 22.4883 15.1953ZM22.9922 26.2344C20.8828 26.2344 19.2344 25.6523 18.0469 24.4883C16.8594 23.3242 16.2656 21.6758 16.2656 19.543C16.2656 17.3477 16.8125 15.6523 17.9062 14.457C19.0078 13.2539 20.5273 12.6523 22.4648 12.6523C24.3164 12.6523 25.7578 13.1797 26.7891 14.2344C27.8203 15.2891 28.3359 16.7461 28.3359 18.6055V20.3398H19.8867C19.9258 21.3555 20.2266 22.1484 20.7891 22.7188C21.3516 23.2891 22.1406 23.5742 23.1562 23.5742C23.9453 23.5742 24.6914 23.4922 25.3945 23.3281C26.0977 23.1641 26.832 22.9023 27.5977 22.543V25.3086C26.9727 25.6211 26.3047 25.8516 25.5938 26C24.8828 26.1562 24.0156 26.2344 22.9922 26.2344ZM34.3594 26L29.3672 12.8984H33.1055L35.6367 20.3633C35.918 21.3086 36.0938 22.2031 36.1641 23.0469H36.2344C36.2734 22.2969 36.4492 21.4023 36.7617 20.3633L39.2812 12.8984H43.0195L38.0273 26H34.3594ZM52.0828 14.668H48.8133V26H46.868V14.668H44.5711V13.7891L46.868 13.0859V12.3711C46.868 9.21484 48.2469 7.63672 51.0047 7.63672C51.6844 7.63672 52.4813 7.77344 53.3953 8.04688L52.8914 9.60547C52.1414 9.36328 51.5008 9.24219 50.9695 9.24219C50.2352 9.24219 49.6922 9.48828 49.3406 9.98047C48.9891 10.4648 48.8133 11.2461 48.8133 12.3242V13.1562H52.0828V14.668ZM56.3719 26H54.4266V13.1562H56.3719V26ZM54.2625 9.67578C54.2625 9.23047 54.3719 8.90625 54.5906 8.70312C54.8094 8.49219 55.0828 8.38672 55.4109 8.38672C55.7234 8.38672 55.993 8.49219 56.2195 8.70312C56.4461 8.91406 56.5594 9.23828 56.5594 9.67578C56.5594 10.1133 56.4461 10.4414 56.2195 10.6602C55.993 10.8711 55.7234 10.9766 55.4109 10.9766C55.0828 10.9766 54.8094 10.8711 54.5906 10.6602C54.3719 10.4414 54.2625 10.1133 54.2625 9.67578ZM69.2859 26V17.6914C69.2859 16.6445 69.0477 15.8633 68.5711 15.3477C68.0945 14.832 67.3484 14.5742 66.3328 14.5742C64.9891 14.5742 64.0047 14.9375 63.3797 15.6641C62.7547 16.3906 62.4422 17.5898 62.4422 19.2617V26H60.4969V13.1562H62.0789L62.3953 14.9141H62.4891C62.8875 14.2812 63.4461 13.793 64.1648 13.4492C64.8836 13.0977 65.6844 12.9219 66.5672 12.9219C68.1141 12.9219 69.2781 13.2969 70.0594 14.0469C70.8406 14.7891 71.2313 15.9805 71.2313 17.6211V26H69.2859ZM83.9812 24.2773H83.8758C82.9773 25.582 81.6336 26.2344 79.8445 26.2344C78.1648 26.2344 76.8562 25.6602 75.9187 24.5117C74.9891 23.3633 74.5242 21.7305 74.5242 19.6133C74.5242 17.4961 74.993 15.8516 75.9305 14.6797C76.868 13.5078 78.1727 12.9219 79.8445 12.9219C81.5867 12.9219 82.9227 13.5547 83.8523 14.8203H84.0047L83.9227 13.8945L83.8758 12.9922V7.76562H85.8211V26H84.2391L83.9812 24.2773ZM80.0906 24.6055C81.4187 24.6055 82.3797 24.2461 82.9734 23.5273C83.575 22.8008 83.8758 21.6328 83.8758 20.0234V19.6133C83.8758 17.793 83.5711 16.4961 82.9617 15.7227C82.3602 14.9414 81.3953 14.5508 80.0672 14.5508C78.9266 14.5508 78.0516 14.9961 77.4422 15.8867C76.8406 16.7695 76.5398 18.0195 76.5398 19.6367C76.5398 21.2773 76.8406 22.5156 77.4422 23.3516C78.0437 24.1875 78.9266 24.6055 80.0906 24.6055ZM95.3836 26.2344C93.4852 26.2344 91.9852 25.6562 90.8836 24.5C89.7898 23.3438 89.243 21.7383 89.243 19.6836C89.243 17.6133 89.7508 15.9688 90.7664 14.75C91.7898 13.5312 93.1609 12.9219 94.8797 12.9219C96.4891 12.9219 97.7625 13.4531 98.7 14.5156C99.6375 15.5703 100.106 16.9648 100.106 18.6992V19.9297H91.2586C91.2977 21.4375 91.6766 22.582 92.3953 23.3633C93.1219 24.1445 94.1414 24.5352 95.4539 24.5352C96.8367 24.5352 98.2039 24.2461 99.5555 23.668V25.4023C98.868 25.6992 98.2156 25.9102 97.5984 26.0352C96.9891 26.168 96.2508 26.2344 95.3836 26.2344ZM94.8562 14.5508C93.825 14.5508 93.0008 14.8867 92.3836 15.5586C91.7742 16.2305 91.4148 17.1602 91.3055 18.3477H98.0203C98.0203 17.1211 97.7469 16.1836 97.2 15.5352C96.6531 14.8789 95.8719 14.5508 94.8562 14.5508ZM109.294 12.9219C109.864 12.9219 110.376 12.9688 110.829 13.0625L110.559 14.8672C110.028 14.75 109.559 14.6914 109.153 14.6914C108.114 14.6914 107.223 15.1133 106.481 15.957C105.747 16.8008 105.38 17.8516 105.38 19.1094V26H103.434V13.1562H105.04L105.262 15.5352H105.356C105.833 14.6992 106.407 14.0547 107.079 13.6016C107.751 13.1484 108.489 12.9219 109.294 12.9219Z" fill="white"/>
<defs>
<clipPath id="clip0">
<rect width="22" height="23.7838" fill="white" transform="translate(119 7.56763)"/>
</clipPath>
</defs>
</svg>
