<?xml version="1.0" standalone="no"?>
<!DOCTYPE svg PUBLIC "-//W3C//DTD SVG 20010904//EN"
 "http://www.w3.org/TR/2001/REC-SVG-20010904/DTD/svg10.dtd">
<svg version="1.0" xmlns="http://www.w3.org/2000/svg"
 width="409.000000pt" height="409.000000pt" viewBox="0 0 409.000000 409.000000"
 preserveAspectRatio="xMidYMid meet">
<metadata>
Created by potrace 1.11, written by Peter Selinger 2001-2013
</metadata>
<g transform="translate(0.000000,409.000000) scale(0.100000,-0.100000)"
fill="#000000" stroke="none">
<path d="M570 2218 l0 -929 343 2 c366 2 466 11 613 58 310 100 507 328 569
661 14 74 14 354 0 430 -70 382 -311 620 -695 685 -25 5 -56 10 -70 12 -14 3
-190 6 -392 7 l-368 3 0 -929z m711 598 c207 -29 328 -137 395 -353 27 -83 27
-379 0 -473 -54 -196 -180 -316 -373 -356 -45 -10 -133 -17 -208 -18 l-130 -1
0 600 c0 571 1 600 18 605 23 6 245 3 298 -4z"/>
<path d="M2741 2479 c-267 -50 -497 -243 -591 -494 -71 -192 -60 -435 26 -608
136 -271 395 -436 688 -439 160 -2 262 26 438 120 4 2 124 -114 267 -258 144
-143 276 -269 294 -280 41 -25 90 -25 142 0 71 34 105 132 70 201 -9 17 -136
150 -281 295 l-266 265 35 67 c76 145 105 306 84 467 -40 324 -293 593 -618
658 -80 17 -217 19 -288 6z m309 -90 c310 -86 517 -346 525 -659 8 -327 -208
-611 -528 -696 -96 -26 -263 -23 -357 6 -170 51 -300 147 -394 289 -127 193
-151 436 -64 656 17 45 91 158 135 206 79 88 254 187 357 203 22 4 42 8 44 11
13 13 221 1 282 -16z m507 -1248 l33 -32 -54 -55 -53 -55 -56 55 -55 56 56 54
56 54 21 -22 c11 -12 35 -37 52 -55z m272 -272 c157 -156 181 -185 181 -212 0
-42 -34 -77 -76 -77 -28 0 -53 22 -214 181 l-182 181 44 46 c39 42 59 61 65
62 1 0 83 -81 182 -181z"/>
<path d="M2827 2334 c-1 -1 -23 -5 -48 -8 -187 -25 -366 -156 -454 -330 -70
-142 -85 -267 -50 -441 10 -50 81 -187 124 -238 86 -103 195 -172 327 -206
312 -80 635 97 740 406 22 63 27 98 28 178 1 124 -5 162 -40 250 -93 233 -314
382 -577 390 -26 1 -49 0 -50 -1z m200 -99 c170 -50 306 -178 364 -346 33 -95
35 -241 5 -334 -55 -171 -181 -301 -351 -361 -68 -24 -223 -28 -300 -8 -387
101 -536 555 -286 872 76 96 218 177 341 194 54 8 172 -1 227 -17z"/>
<path d="M2853 2169 c-7 -7 -13 -21 -13 -30 0 -26 20 -36 84 -43 123 -14 248
-102 301 -213 20 -43 29 -53 50 -53 44 0 48 30 14 98 -52 105 -166 199 -283
234 -58 17 -140 21 -153 7z"/>
<path d="M3277 1744 c-12 -12 -8 -52 6 -61 33 -20 61 -1 55 39 -2 16 -11 24
-28 26 -14 2 -29 0 -33 -4z"/>
</g>
</svg>
